<?xml version="1.0" standalone="no"?><!DOCTYPE svg PUBLIC "-//W3C//DTD SVG 1.1//EN" "http://www.w3.org/Graphics/SVG/1.1/DTD/svg11.dtd"><svg t="1698588519797" class="icon" viewBox="0 0 1024 1024" version="1.1" xmlns="http://www.w3.org/2000/svg" p-id="9312" data-spm-anchor-id="a313x.search_index.0.i3.36a13a81KNz2jc" width="32" height="32" xmlns:xlink="http://www.w3.org/1999/xlink"><path d="M511.914 862.878C693.558 693.65 808.273 580.898 854.97 525.862a517.06 517.06 0 0 0 3.788-4.516 36 36 0 0 1 2.318-2.539c29.635-29.494 50.243-66.888 59.07-107.912 0.044-0.21 0.092-0.42 0.14-0.63 1.59-6.797 2.677-13.453 3.27-19.976 0.022-0.255 0.048-0.509 0.077-0.763A219.746 219.746 0 0 0 925 365c0-119.846-97.154-217-217-217-66.027 0-127.127 29.625-168.125 79.79-14.404 17.626-41.346 17.626-55.75 0C443.127 177.626 382.027 148 316 148c-119.846 0-217 97.154-217 217 0 6.317 0.269 12.596 0.803 18.829a36 36 0 0 1 0.13 3.452c-0.159 15.213 3.663 32.32 11.829 51.396a36 36 0 0 1 0.664 1.667c10.955 29.585 28.298 56.424 50.693 78.657a36 36 0 0 1 2.308 2.52c1.2 1.442 2.415 2.889 3.648 4.34 49.856 58.76 164.448 171.46 342.84 337.017zM27 365C27 205.39 156.39 76 316 76c73.943 0 143.359 27.975 196 76.604C564.641 103.974 634.057 76 708 76c159.61 0 289 129.39 289 289 0 10.805-0.595 21.545-1.775 32.184-0.895 9.663-2.484 19.388-4.758 29.167-11.687 54.03-38.67 103.273-77.363 142.25a591.873 591.873 0 0 1-3.233 3.843C858.576 632.9 734.52 754.406 536.465 938.376c-13.792 12.812-35.126 12.834-48.945 0.052C292.905 758.422 168.813 636.84 114.174 572.444a668.599 668.599 0 0 1-3.015-3.579c-28.985-29.122-51.523-64.114-65.94-102.682-11.4-26.877-17.273-52.856-17.29-77.872A292.45 292.45 0 0 1 27 365z" fill="#ffffff" p-id="9313"></path></svg>