<?xml version="1.0" standalone="no"?><!DOCTYPE svg PUBLIC "-//W3C//DTD SVG 1.1//EN" "http://www.w3.org/Graphics/SVG/1.1/DTD/svg11.dtd"><svg t="1698590381002" class="icon" viewBox="0 0 1024 1024" version="1.1" xmlns="http://www.w3.org/2000/svg" p-id="22965" xmlns:xlink="http://www.w3.org/1999/xlink" width="32" height="32"><path d="M512 0a43.52 43.52 0 1 1 0 87.04A424.988444 424.988444 0 1 0 936.988444 512 43.52 43.52 0 1 1 1024 512 512 512 0 1 1 512 0z m263.509333 217.685333A42.666667 42.666667 0 0 1 836.266667 157.582222l74.951111 74.951111a57.799111 57.799111 0 0 1 0 81.863111L836.266667 389.376a42.666667 42.666667 0 0 1-60.472889-60.416l12.686222-12.743111h-55.182222c-150.072889 0-201.045333 63.886222-201.045334 257.166222a42.666667 42.666667 0 0 1-85.333333 0c0-238.933333 87.182222-342.613333 286.520889-342.613333h55.182222l-13.056-13.056z" p-id="22966" fill="#ffffff"></path></svg>